<?xml version="1.0" standalone="no"?>
<!DOCTYPE svg PUBLIC "-//W3C//DTD SVG 20010904//EN"
 "http://www.w3.org/TR/2001/REC-SVG-20010904/DTD/svg10.dtd">
<svg version="1.0" xmlns="http://www.w3.org/2000/svg"
 width="32.000000pt" height="32.000000pt" viewBox="0 0 32.000000 32.000000"
 preserveAspectRatio="xMidYMid meet">
<metadata>
Created by potrace 1.16, written by Peter Selinger 2001-2019
</metadata>
<g transform="translate(0.000000,32.000000) scale(0.100000,-0.100000)"
fill="#000000" stroke="none">
<path d="M0 160 l0 -160 160 0 160 0 0 160 0 160 -160 0 -160 0 0 -160z m184
68 c9 -12 16 -30 16 -40 0 -10 7 -18 15 -18 8 0 15 -7 15 -15 0 -8 9 -15 20
-15 15 0 20 -7 20 -25 l0 -26 -102 3 c-102 3 -103 3 -103 28 0 21 4 25 27 23
25 -1 26 0 17 23 -5 14 -9 39 -9 55 0 26 3 29 34 29 25 0 39 -7 50 -22z"/>
</g>
</svg>
